<?xml version="1.0" encoding="UTF-8"?>
<svg id="Layer_1" xmlns="http://www.w3.org/2000/svg" version="1.1" viewBox="0 0 697.7 174.3">
  <!-- Generator: Adobe Illustrator 29.3.1, SVG Export Plug-In . SVG Version: 2.1.0 Build 151)  -->
  <defs>
    <style>
      .st0 {
        fill: #fff;
      }
    </style>
  </defs>
  <g>
    <path class="st0" d="M340.3,78.2c9.8-3.9,15.2-12.7,15.2-24.7,0-17.3-10.8-28.1-28.2-28.1h-54.8v75.6h16.2v-59.2h38.6c7.9,0,12.2,4.3,12.2,12.2s-4.4,12.6-12.2,12.6h-29.3v13.9h23.5s18.4,20.5,18.4,20.5h23.1l-22.7-22.8h0Z"/>
    <path class="st0" d="M427.3,70.5h-17l-7.4,12.6h31.9l10.6,17.8h19.4l-42.8-71.3c-1.9-3.1-4.3-5.2-7.8-5.2s-5.9,2.1-7.8,5.2l-42.8,71.3h18.4l31.6-53.6,13.8,23.2h0Z"/>
    <polygon class="st0" points="274.4 128.2 295 128.2 295 173.9 302.1 173.9 302.1 128.2 322.8 128.2 322.8 121.1 274.4 121.1 274.4 128.2"/>
    <rect class="st0" x="343.5" y="143.8" width="30.5" height="6.5"/>
    <polygon class="st0" points="336.6 128.2 375.9 128.2 375.9 121.1 329.6 121.1 329.6 173.9 376 173.9 376 166.9 336.6 166.9 336.6 128.2"/>
    <path class="st0" d="M383.1,147c0,15.3,10.7,26.9,25.2,26.9h28.1v-7h-28.1c-10.5,0-18.1-8.4-18.1-19.5s7.7-19.2,18.1-19.2h28.1v-7h-28.1c-14.5,0-25.2,10.3-25.2,25.8Z"/>
    <polygon class="st0" points="488.2 143.8 458.4 143.8 458.4 150.3 488.2 150.3 488.2 174.3 495.3 174.3 495.3 121.1 488.2 121.1 488.2 143.8"/>
    <rect class="st0" x="444.5" y="121.1" width="7" height="53.1"/>
    <path class="st0" d="M536.5,82.3c.2-.7.4-1.3.5-2-.2.7-.4,1.4-.6,2.1l-10.9,19h1.9c-7.1,8.5-15.5,7.4-22.1.1-.2-.2-.4-.4-.6-.6-.6-.7-1.2-1.4-1.7-2.2-.4-.6-.8-1.2-1.2-1.8h0c-.3-.5-.7-1.1-1-1.6-.4-.8-.9-1.6-1.3-2.4,0,0,0-.2-.1-.2l.8-1.5,34.7-60.7c.3.8.5,1.6.8,2.4,1.2,4.1,2.3,8.8,3.2,14.1-.7-5.5-1.7-10.4-2.8-14.9-.2-.8-.4-1.6-.6-2.4l2.7-4.8h-4.2c-.1-.4-.3-.8-.4-1.1-12.2-33.7-37.2-28.1-48.8-1.3-.4.8-.7,1.6-1,2.4-1.2,3.1-2.2,6.4-3,9.9,0,.3-.2.7-.2,1-.2.9-.4,1.9-.5,2.8-.1.6-.2,1.3-.3,1.9-.1.9-.3,1.8-.4,2.8-.2,1.4-.3,2.9-.4,4.3-.1,1.6-.2,3.2-.2,4.9l-1.2-2-1.3-2.1-4.8-8v-.2c-.1,0-5.5-9-5.5-9l-3.5-5.9h-20.2l12.1,19.7,13.7,22.2,1.2,1.9.6,1,9.7,14.8,5.7,8.7h0c1,2.3,2.1,4.5,3.3,6.5.1.2.2.4.3.6,0,.1.1.2.2.4,0,0,.1.2.2.3,10.8,17.5,27.9,22.5,40.2-.1h20.6l3.5-6.4h34.7l3.5,6.4h24.3l-45-78.8-34.3,59.7h0ZM493.1,61.4c0-2,0-4,.1-5.9.5-10,2.5-19.1,5.4-26.4,8.2-20.7,23.8-27.8,33.8-5.3.2.4.3.7.5,1.1h-19.1l-20.5,36.5-.3.5h0v-.6h0ZM559.4,84.1l11.3-19.8,11.1,19.8h-22.4Z"/>
    <polygon class="st0" points="675.1 25 675.1 60.7 626.9 22.8 626.9 101.4 649.5 101.4 649.5 65.8 697.7 103.5 697.7 25 675.1 25"/>
  </g>
  <g>
    <path class="st0" d="M95.3,0c-5.2,0-8.8,3.8-11.6,9.6L5.5,173.4h27.2L94.4,42.1l30.3,64h-41.8l-11.2,24.2h64.4l20.4,43.1h28.6L106.8,9.6c-2.8-5.9-6.2-9.6-11.4-9.6h0Z"/>
    <path class="st0" d="M238.4,63.2c0-38.6-19.5-63.2-52.6-63.2h-75.8c1.6,1.6,3,3.8,4.2,6.3l2.3,4.5,3.4,7h59.5c27.3,0,40.5,16,40.9,41.1.2,10.3,0,17.2-5.3,25.7-.8-.1-1.6-.2-2.4-.2-8.4,0-15.3,6.8-15.3,15.3s6.9,15.3,15.3,15.3,15.3-6.8,15.3-15.3,0-1.4-.2-2.1c6.5-8.5,10.6-19.3,10.6-34.3h0ZM212.4,109.6c-5.4,0-9.7-4.3-9.7-9.7s4.4-9.7,9.7-9.7,9.7,4.3,9.7,9.7-4.4,9.7-9.7,9.7Z"/>
    <path class="st0" d="M186.1,98.3c-1.2.1-2.5.2-3.9.2h-25.1l13.4,26.7h5.5l36.7,48.2h31.1l-57.7-75.1h0Z"/>
    <polygon class="st0" points="25 22.8 0 72.8 0 166.1 25 116.4 25 22.8"/>
    <path class="st0" d="M25,2.3H0v56.6L25,8.9V2.3ZM17.5,11.1l-12,24.1V7.9h12v3.2Z"/>
  </g>
</svg>